<svg xmlns="http://www.w3.org/2000/svg" width="1200" height="800" viewBox="0 0 1200 800" fill="none">
  <g opacity="0.85" stroke="rgba(11,27,78,0.38)" stroke-width="3" stroke-linecap="round" stroke-linejoin="round">
    <path d="M260 620h680" opacity="0.45"/>
    <rect x="290" y="190" width="180" height="430" rx="28"/>
    <rect x="510" y="140" width="200" height="480" rx="28"/>
    <rect x="750" y="220" width="170" height="400" rx="28"/>
    <path d="M330 260h100" opacity="0.65"/>
    <path d="M330 320h100" opacity="0.65"/>
    <path d="M330 380h100" opacity="0.65"/>
    <path d="M550 220h120" opacity="0.65"/>
    <path d="M550 290h120" opacity="0.65"/>
    <path d="M550 360h120" opacity="0.65"/>
    <path d="M550 430h120" opacity="0.65"/>
    <path d="M785 300h100" opacity="0.65"/>
    <path d="M785 360h100" opacity="0.65"/>
    <path d="M785 420h100" opacity="0.65"/>
    <path d="M820 510c30-40 60-65 105-88" opacity="0.45"/>
    <path d="M760 170c40-35 95-55 160-60" opacity="0.45"/>
  </g>
</svg>
