<svg xmlns="http://www.w3.org/2000/svg" width="1200" height="800" viewBox="0 0 1200 800" fill="none">
  <g opacity="0.85" stroke="rgba(11,27,78,0.38)" stroke-width="3" stroke-linecap="round" stroke-linejoin="round">
    <path d="M180 620c140-140 300-210 480-210s340 70 480 210" opacity="0.45"/>
    <circle cx="660" cy="520" r="210"/>
    <path d="M450 520h420"/>
    <path d="M660 310v420"/>
    <path d="M520 340c80 90 120 200 120 330s-40 240-120 330" opacity="0.7"/>
    <path d="M800 340c-80 90-120 200-120 330s40 240 120 330" opacity="0.7"/>
    <circle cx="420" cy="430" r="10"/>
    <circle cx="850" cy="460" r="10"/>
    <circle cx="760" cy="670" r="10"/>
    <path d="M420 430c80 30 150 40 240 40 80 0 140-10 190-25" opacity="0.6"/>
    <path d="M850 460c-60 80-120 140-220 190" opacity="0.5"/>
    <path d="M760 670c-120-40-210-90-320-180" opacity="0.5"/>
  </g>
</svg>
